<?xml version="1.0" standalone="no"?>
<!DOCTYPE svg PUBLIC "-//W3C//DTD SVG 20010904//EN"
 "http://www.w3.org/TR/2001/REC-SVG-20010904/DTD/svg10.dtd">
<svg version="1.0" xmlns="http://www.w3.org/2000/svg"
 width="281.000000pt" height="287.000000pt" viewBox="0 0 281.000000 287.000000"
 preserveAspectRatio="xMidYMid meet">

<g transform="translate(0.000000,287.000000) scale(0.100000,-0.100000)"
fill="#000000" stroke="none">
<path d="M895 2855 c-50 -17 -102 -75 -116 -129 -13 -49 0 -102 34 -134 32
-30 126 -62 182 -62 55 0 93 -18 129 -60 29 -35 32 -56 13 -85 -16 -24 -38
-106 -31 -117 3 -4 2 -23 -2 -43 -6 -31 -9 -34 -33 -29 -14 3 -45 19 -68 35
-66 46 -384 196 -455 215 -73 19 -155 14 -232 -14 -50 -17 -156 -109 -156
-134 0 -7 -7 -26 -16 -43 -12 -20 -17 -57 -18 -115 -1 -74 3 -92 27 -142 34
-69 31 -78 -47 -136 -38 -29 -62 -57 -80 -94 l-26 -54 3 -799 c3 -591 7 -810
15 -837 8 -23 25 -44 46 -57 33 -21 37 -21 1340 -21 1443 0 1345 -4 1386 63
19 31 20 56 20 857 0 805 -1 826 -20 858 -11 17 -23 32 -27 32 -14 0 -104 86
-116 110 -10 20 -7 33 17 82 25 50 29 70 29 141 1 75 -2 88 -32 140 -40 71
-119 141 -182 161 -100 33 -230 12 -369 -59 -36 -18 -74 -36 -86 -39 -11 -4
-63 -31 -115 -62 -52 -31 -115 -67 -140 -80 l-46 -23 -5 78 c-3 56 -11 89 -26
115 -29 49 -28 58 11 92 35 32 72 46 162 64 124 25 185 77 185 159 0 104 -106
189 -208 166 -16 -3 -46 -24 -68 -46 -21 -22 -74 -59 -117 -81 -45 -23 -100
-63 -131 -95 -54 -53 -56 -54 -108 -52 -46 2 -59 7 -103 44 -28 24 -85 64
-127 89 -42 26 -91 63 -109 84 -18 20 -39 42 -48 48 -28 20 -94 24 -136 9z
m94 -90 c16 -8 34 -28 39 -45 6 -16 16 -30 22 -30 6 0 42 -18 79 -39 81 -48
165 -129 180 -174 l11 -33 89 0 89 0 16 33 c33 70 166 183 243 207 13 4 30 22
39 41 31 66 121 68 148 3 16 -36 6 -86 -21 -105 -22 -17 -74 -16 -99 1 -17 12
-26 11 -71 -10 -70 -33 -143 -101 -177 -163 l-28 -52 35 -39 c62 -68 62 -162
0 -231 -47 -52 -104 -72 -191 -67 -55 3 -78 9 -111 31 -99 66 -117 184 -41
271 17 18 30 40 30 47 0 23 -67 116 -102 143 -18 13 -59 38 -91 55 -54 28 -61
30 -80 16 -49 -34 -127 2 -127 59 0 77 55 115 119 81z m-444 -410 c68 -18 192
-77 405 -193 227 -124 260 -143 259 -150 0 -4 -20 -23 -43 -42 -24 -19 -57
-56 -74 -81 l-30 -45 -153 -18 c-269 -33 -413 -6 -577 106 -64 44 -106 132
-107 223 0 59 5 77 28 117 15 25 38 53 51 62 57 37 148 45 241 21z m1910 4
c89 -25 157 -141 141 -241 -19 -120 -97 -203 -243 -260 -121 -47 -227 -55
-428 -33 l-165 18 -21 36 c-12 20 -46 59 -76 87 l-55 50 108 61 c204 113 389
212 448 239 113 52 208 66 291 43z m-935 -400 c77 -35 141 -93 93 -84 -10 2
-110 4 -222 4 -221 1 -221 1 -148 53 72 52 196 64 277 27z m1092 -130 l39 -32
-36 -29 c-20 -17 -53 -46 -73 -65 -41 -40 -377 -341 -431 -388 -19 -16 -80
-71 -135 -120 -148 -132 -349 -303 -408 -346 -28 -20 -27 -20 8 40 24 41 51
70 83 91 57 36 134 132 168 209 32 72 53 169 53 248 l0 62 48 -22 c37 -17 66
-21 142 -22 84 0 101 3 152 28 32 16 71 42 88 58 35 36 69 108 77 165 7 54 8
55 73 88 30 16 66 37 79 47 13 11 26 19 28 19 3 0 23 -14 45 -31z m-2265 -28
c74 -46 78 -50 85 -92 15 -103 81 -189 177 -232 64 -28 172 -34 245 -13 32 10
64 15 70 13 7 -3 13 -28 15 -56 3 -72 34 -188 69 -257 26 -52 124 -175 145
-182 26 -8 53 -34 83 -80 19 -29 34 -55 34 -58 0 -7 -73 51 -159 126 -41 36
-107 92 -147 125 -40 33 -142 121 -226 196 -84 75 -214 191 -288 257 -74 66
-166 150 -205 186 l-70 66 30 25 c17 14 38 25 47 25 9 0 52 -22 95 -49z m1377
-61 c30 -75 54 -70 -319 -70 l-335 0 20 53 c11 28 20 53 20 55 0 1 135 2 299
2 l299 0 16 -40z m-741 -48 c-23 -64 -28 -71 -81 -103 -49 -29 -67 -34 -133
-38 -70 -3 -83 0 -130 25 -55 31 -95 79 -105 130 l-6 32 153 -5 c138 -4 196 1
320 26 3 0 -5 -30 -18 -67z m941 47 c43 -7 126 -10 218 -7 168 6 166 7 126
-72 -34 -67 -93 -103 -174 -108 -80 -5 -136 10 -193 51 -35 26 -48 44 -66 95
l-23 64 21 -6 c12 -2 53 -10 91 -17z m-1696 -111 c167 -157 280 -258 357 -323
39 -32 100 -86 136 -119 36 -34 96 -88 133 -120 l68 -59 -159 -156 c-88 -86
-275 -268 -416 -404 l-257 -249 0 750 c0 413 3 757 6 766 3 9 10 16 14 16 4 0
57 -46 118 -102z m2496 86 c3 -9 6 -351 6 -761 l0 -745 -37 32 c-21 18 -175
166 -343 329 -168 163 -338 328 -379 367 l-74 71 64 54 c35 30 95 84 134 120
38 36 106 96 150 134 114 98 221 195 346 313 60 56 113 102 118 102 5 0 12 -7
15 -16z m-946 -191 l3 -53 -370 0 -371 0 0 39 c0 77 -29 72 374 69 l361 -3 3
-52z m-8 -169 c0 -9 -5 -34 -12 -55 l-11 -39 -334 0 -333 0 -11 28 c-6 15 -13
39 -16 55 l-5 27 361 0 c327 0 361 -2 361 -16z m-79 -202 c-6 -10 -28 -35 -51
-55 l-40 -37 -190 0 -190 0 -45 43 c-25 24 -45 49 -45 55 0 9 74 12 285 12
274 0 285 -1 276 -18z m-233 -266 c-47 -96 -39 -97 -102 17 l-38 67 91 0 91 0
-42 -84z m-353 -27 c102 -91 275 -234 295 -243 15 -7 38 7 115 70 53 43 127
105 163 139 37 33 85 75 108 92 l41 32 94 -92 c81 -79 319 -308 681 -657 54
-51 95 -97 92 -102 -6 -10 -2574 -11 -2574 -1 0 4 44 50 98 102 53 52 216 210
362 352 146 142 298 289 339 328 l75 70 25 -18 c14 -11 53 -43 86 -72z"/>
</g>
</svg>
